<svg id="visual" viewBox="0 0 900 300" width="900" height="300" xmlns="http://www.w3.org/2000/svg" xmlns:xlink="http://www.w3.org/1999/xlink" version="1.1"><path d="M0 243L21.5 236.2C43 229.3 86 215.7 128.8 206.3C171.7 197 214.3 192 257.2 196.7C300 201.3 343 215.7 385.8 217.2C428.7 218.7 471.3 207.3 514.2 201.8C557 196.3 600 196.7 642.8 192C685.7 187.3 728.3 177.7 771.2 182.7C814 187.7 857 207.3 878.5 217.2L900 227L900 301L878.5 301C857 301 814 301 771.2 301C728.3 301 685.7 301 642.8 301C600 301 557 301 514.2 301C471.3 301 428.7 301 385.8 301C343 301 300 301 257.2 301C214.3 301 171.7 301 128.8 301C86 301 43 301 21.5 301L0 301Z" fill="#9d79bc"></path><path d="M0 235L21.5 237.3C43 239.7 86 244.3 128.8 245.3C171.7 246.3 214.3 243.7 257.2 232C300 220.3 343 199.7 385.8 195.8C428.7 192 471.3 205 514.2 215.2C557 225.3 600 232.7 642.8 230.8C685.7 229 728.3 218 771.2 218C814 218 857 229 878.5 234.5L900 240L900 301L878.5 301C857 301 814 301 771.2 301C728.3 301 685.7 301 642.8 301C600 301 557 301 514.2 301C471.3 301 428.7 301 385.8 301C343 301 300 301 257.2 301C214.3 301 171.7 301 128.8 301C86 301 43 301 21.5 301L0 301Z" fill="#9465b0"></path><path d="M0 252L21.5 246.3C43 240.7 86 229.3 128.8 231.5C171.7 233.7 214.3 249.3 257.2 257.7C300 266 343 267 385.8 267C428.7 267 471.3 266 514.2 262.7C557 259.3 600 253.7 642.8 249.5C685.7 245.3 728.3 242.7 771.2 235.5C814 228.3 857 216.7 878.5 210.8L900 205L900 301L878.5 301C857 301 814 301 771.2 301C728.3 301 685.7 301 642.8 301C600 301 557 301 514.2 301C471.3 301 428.7 301 385.8 301C343 301 300 301 257.2 301C214.3 301 171.7 301 128.8 301C86 301 43 301 21.5 301L0 301Z" fill="#8c51a3"></path><path d="M0 249L21.5 248.3C43 247.7 86 246.3 128.8 245.7C171.7 245 214.3 245 257.2 244.3C300 243.7 343 242.3 385.8 244.5C428.7 246.7 471.3 252.3 514.2 254.2C557 256 600 254 642.8 256.8C685.7 259.7 728.3 267.3 771.2 268C814 268.7 857 262.3 878.5 259.2L900 256L900 301L878.5 301C857 301 814 301 771.2 301C728.3 301 685.7 301 642.8 301C600 301 557 301 514.2 301C471.3 301 428.7 301 385.8 301C343 301 300 301 257.2 301C214.3 301 171.7 301 128.8 301C86 301 43 301 21.5 301L0 301Z" fill="#853b95"></path><path d="M0 275L21.5 276C43 277 86 279 128.8 282.5C171.7 286 214.3 291 257.2 288.8C300 286.7 343 277.3 385.8 273.2C428.7 269 471.3 270 514.2 268.7C557 267.3 600 263.7 642.8 264.8C685.7 266 728.3 272 771.2 271.7C814 271.3 857 264.7 878.5 261.3L900 258L900 301L878.5 301C857 301 814 301 771.2 301C728.3 301 685.7 301 642.8 301C600 301 557 301 514.2 301C471.3 301 428.7 301 385.8 301C343 301 300 301 257.2 301C214.3 301 171.7 301 128.8 301C86 301 43 301 21.5 301L0 301Z" fill="#7e1f86"></path></svg>