<svg id="visual" viewBox="0 0 900 300" width="900" height="300" xmlns="http://www.w3.org/2000/svg" xmlns:xlink="http://www.w3.org/1999/xlink" version="1.1"><path d="M0 121L21.5 110.3C43 99.7 86 78.3 128.8 81.5C171.7 84.7 214.3 112.3 257.2 123.8C300 135.3 343 130.7 385.8 122.2C428.7 113.7 471.3 101.3 514.2 103.3C557 105.3 600 121.7 642.8 130.8C685.7 140 728.3 142 771.2 138C814 134 857 124 878.5 119L900 114L900 0L878.5 0C857 0 814 0 771.2 0C728.3 0 685.7 0 642.8 0C600 0 557 0 514.2 0C471.3 0 428.7 0 385.8 0C343 0 300 0 257.2 0C214.3 0 171.7 0 128.8 0C86 0 43 0 21.5 0L0 0Z" fill="#9d79bc"></path><path d="M0 117L21.5 107.2C43 97.3 86 77.7 128.8 76.2C171.7 74.7 214.3 91.3 257.2 99C300 106.7 343 105.3 385.8 102.8C428.7 100.3 471.3 96.7 514.2 92.5C557 88.3 600 83.7 642.8 79C685.7 74.3 728.3 69.7 771.2 71.8C814 74 857 83 878.5 87.5L900 92L900 0L878.5 0C857 0 814 0 771.2 0C728.3 0 685.7 0 642.8 0C600 0 557 0 514.2 0C471.3 0 428.7 0 385.8 0C343 0 300 0 257.2 0C214.3 0 171.7 0 128.8 0C86 0 43 0 21.5 0L0 0Z" fill="#9465b0"></path><path d="M0 50L21.5 57C43 64 86 78 128.8 81.2C171.7 84.3 214.3 76.7 257.2 76.8C300 77 343 85 385.8 85C428.7 85 471.3 77 514.2 66.5C557 56 600 43 642.8 42.7C685.7 42.3 728.3 54.7 771.2 62.5C814 70.3 857 73.7 878.5 75.3L900 77L900 0L878.5 0C857 0 814 0 771.2 0C728.3 0 685.7 0 642.8 0C600 0 557 0 514.2 0C471.3 0 428.7 0 385.8 0C343 0 300 0 257.2 0C214.3 0 171.7 0 128.8 0C86 0 43 0 21.5 0L0 0Z" fill="#8c51a3"></path><path d="M0 55L21.5 53.2C43 51.3 86 47.7 128.8 48.8C171.7 50 214.3 56 257.2 58C300 60 343 58 385.8 53.2C428.7 48.3 471.3 40.7 514.2 37.7C557 34.7 600 36.3 642.8 36.5C685.7 36.7 728.3 35.3 771.2 38.2C814 41 857 48 878.5 51.5L900 55L900 0L878.5 0C857 0 814 0 771.2 0C728.3 0 685.7 0 642.8 0C600 0 557 0 514.2 0C471.3 0 428.7 0 385.8 0C343 0 300 0 257.2 0C214.3 0 171.7 0 128.8 0C86 0 43 0 21.5 0L0 0Z" fill="#853b95"></path><path d="M0 39L21.5 33.5C43 28 86 17 128.8 17.8C171.7 18.7 214.3 31.3 257.2 37.8C300 44.3 343 44.7 385.8 40.7C428.7 36.7 471.3 28.3 514.2 21.5C557 14.7 600 9.3 642.8 12.3C685.7 15.3 728.3 26.7 771.2 28.3C814 30 857 22 878.5 18L900 14L900 0L878.5 0C857 0 814 0 771.2 0C728.3 0 685.7 0 642.8 0C600 0 557 0 514.2 0C471.3 0 428.7 0 385.8 0C343 0 300 0 257.2 0C214.3 0 171.7 0 128.8 0C86 0 43 0 21.5 0L0 0Z" fill="#7e1f86"></path></svg>